<mxfile host="Electron" agent="Mozilla/5.0 (X11; Linux x86_64) AppleWebKit/537.36 (KHTML, like Gecko) draw.io/25.0.1 Chrome/128.0.6613.186 Electron/32.2.6 Safari/537.36" version="25.0.1">
  <diagram name="Page-1" id="cWjBg0mMdGARO_29oUkw">
    <mxGraphModel dx="1120" dy="547" grid="1" gridSize="10" guides="1" tooltips="1" connect="1" arrows="1" fold="1" page="1" pageScale="1" pageWidth="850" pageHeight="1100" math="0" shadow="0">
      <root>
        <mxCell id="0" />
        <mxCell id="1" parent="0" />
        <mxCell id="pr5d2caCac0nk4MrqDay-2" value="" style="rounded=0;whiteSpace=wrap;html=1;" parent="1" vertex="1">
          <mxGeometry x="225" width="400" height="790" as="geometry" />
        </mxCell>
        <mxCell id="pr5d2caCac0nk4MrqDay-3" value="&lt;font style=&quot;font-size: 18px;&quot;&gt;UML Use Case Diagram Of Denarius&lt;/font&gt;" style="text;html=1;align=center;verticalAlign=middle;whiteSpace=wrap;rounded=0;" parent="1" vertex="1">
          <mxGeometry x="268" width="315" height="40" as="geometry" />
        </mxCell>
        <mxCell id="pr5d2caCac0nk4MrqDay-4" value="" style="ellipse;whiteSpace=wrap;html=1;" parent="1" vertex="1">
          <mxGeometry x="365" y="51" width="120" height="80" as="geometry" />
        </mxCell>
        <mxCell id="pr5d2caCac0nk4MrqDay-5" value="Effectively manage to-dos." style="text;html=1;align=center;verticalAlign=middle;whiteSpace=wrap;rounded=0;" parent="1" vertex="1">
          <mxGeometry x="395" y="71" width="60" height="40" as="geometry" />
        </mxCell>
        <mxCell id="QxtorDFf0iuugZyER2xK-2" style="edgeStyle=orthogonalEdgeStyle;rounded=0;orthogonalLoop=1;jettySize=auto;html=1;entryX=0;entryY=0.5;entryDx=0;entryDy=0;" edge="1" parent="1" source="pr5d2caCac0nk4MrqDay-7" target="QxtorDFf0iuugZyER2xK-1">
          <mxGeometry relative="1" as="geometry">
            <Array as="points">
              <mxPoint x="105" y="330" />
              <mxPoint x="170" y="330" />
              <mxPoint x="170" y="735" />
            </Array>
          </mxGeometry>
        </mxCell>
        <mxCell id="pr5d2caCac0nk4MrqDay-7" value="Actor" style="shape=umlActor;verticalLabelPosition=bottom;verticalAlign=top;html=1;outlineConnect=0;" parent="1" vertex="1">
          <mxGeometry x="90" y="267.5" width="30" height="60" as="geometry" />
        </mxCell>
        <mxCell id="wMsvWjjIKzqpTzz2eaQ6-1" value="User" style="text;html=1;align=center;verticalAlign=middle;whiteSpace=wrap;rounded=0;" parent="1" vertex="1">
          <mxGeometry x="75" y="230.5" width="60" height="30" as="geometry" />
        </mxCell>
        <mxCell id="wMsvWjjIKzqpTzz2eaQ6-2" value="" style="endArrow=none;html=1;rounded=0;exitX=0;exitY=0.5;exitDx=0;exitDy=0;" parent="1" source="pr5d2caCac0nk4MrqDay-4" edge="1">
          <mxGeometry width="50" height="50" relative="1" as="geometry">
            <mxPoint x="400" y="233" as="sourcePoint" />
            <mxPoint x="130" y="290" as="targetPoint" />
            <Array as="points">
              <mxPoint x="190" y="93" />
              <mxPoint x="190" y="290" />
            </Array>
          </mxGeometry>
        </mxCell>
        <mxCell id="wMsvWjjIKzqpTzz2eaQ6-4" value="" style="ellipse;whiteSpace=wrap;html=1;" parent="1" vertex="1">
          <mxGeometry x="240" y="163" width="120" height="80" as="geometry" />
        </mxCell>
        <mxCell id="wMsvWjjIKzqpTzz2eaQ6-5" value="Create to-do object with form" style="text;html=1;align=center;verticalAlign=middle;whiteSpace=wrap;rounded=0;" parent="1" vertex="1">
          <mxGeometry x="255" y="178" width="90" height="50" as="geometry" />
        </mxCell>
        <mxCell id="wMsvWjjIKzqpTzz2eaQ6-6" value="" style="ellipse;whiteSpace=wrap;html=1;" parent="1" vertex="1">
          <mxGeometry x="365" y="163" width="120" height="80" as="geometry" />
        </mxCell>
        <mxCell id="wMsvWjjIKzqpTzz2eaQ6-7" value="" style="endArrow=block;dashed=1;endFill=0;endSize=12;html=1;rounded=0;exitX=0;exitY=1;exitDx=0;exitDy=0;entryX=0.5;entryY=0;entryDx=0;entryDy=0;" parent="1" source="pr5d2caCac0nk4MrqDay-4" target="wMsvWjjIKzqpTzz2eaQ6-4" edge="1">
          <mxGeometry width="160" relative="1" as="geometry">
            <mxPoint x="340" y="213" as="sourcePoint" />
            <mxPoint x="500" y="213" as="targetPoint" />
          </mxGeometry>
        </mxCell>
        <mxCell id="wMsvWjjIKzqpTzz2eaQ6-8" value="View to-do object properties in UI" style="text;html=1;align=center;verticalAlign=middle;whiteSpace=wrap;rounded=0;" parent="1" vertex="1">
          <mxGeometry x="375" y="188" width="100" height="30" as="geometry" />
        </mxCell>
        <mxCell id="wMsvWjjIKzqpTzz2eaQ6-9" value="" style="endArrow=block;dashed=1;endFill=0;endSize=12;html=1;rounded=0;exitX=0.5;exitY=1;exitDx=0;exitDy=0;entryX=0.5;entryY=0;entryDx=0;entryDy=0;" parent="1" source="pr5d2caCac0nk4MrqDay-4" target="wMsvWjjIKzqpTzz2eaQ6-6" edge="1">
          <mxGeometry width="160" relative="1" as="geometry">
            <mxPoint x="340" y="213" as="sourcePoint" />
            <mxPoint x="500" y="213" as="targetPoint" />
          </mxGeometry>
        </mxCell>
        <mxCell id="wMsvWjjIKzqpTzz2eaQ6-10" value="" style="ellipse;whiteSpace=wrap;html=1;" parent="1" vertex="1">
          <mxGeometry x="490" y="163" width="120" height="80" as="geometry" />
        </mxCell>
        <mxCell id="wMsvWjjIKzqpTzz2eaQ6-11" value="Edit to-do object properties using UI" style="text;html=1;align=center;verticalAlign=middle;whiteSpace=wrap;rounded=0;" parent="1" vertex="1">
          <mxGeometry x="495" y="175.5" width="110" height="55" as="geometry" />
        </mxCell>
        <mxCell id="wMsvWjjIKzqpTzz2eaQ6-12" value="" style="endArrow=block;dashed=1;endFill=0;endSize=12;html=1;rounded=0;exitX=1;exitY=1;exitDx=0;exitDy=0;entryX=0.5;entryY=0;entryDx=0;entryDy=0;" parent="1" source="pr5d2caCac0nk4MrqDay-4" target="wMsvWjjIKzqpTzz2eaQ6-10" edge="1">
          <mxGeometry width="160" relative="1" as="geometry">
            <mxPoint x="340" y="173" as="sourcePoint" />
            <mxPoint x="500" y="173" as="targetPoint" />
          </mxGeometry>
        </mxCell>
        <mxCell id="wMsvWjjIKzqpTzz2eaQ6-13" value="The arrows with dashed lines represent &amp;lt;&amp;lt;include&amp;gt;&amp;gt;." style="text;html=1;align=center;verticalAlign=middle;whiteSpace=wrap;rounded=0;" parent="1" vertex="1">
          <mxGeometry x="540" y="51" width="70" height="80" as="geometry" />
        </mxCell>
        <mxCell id="wMsvWjjIKzqpTzz2eaQ6-16" value="" style="ellipse;whiteSpace=wrap;html=1;" parent="1" vertex="1">
          <mxGeometry x="365" y="260" width="120" height="80" as="geometry" />
        </mxCell>
        <mxCell id="wMsvWjjIKzqpTzz2eaQ6-17" value="Organise to-dos in lists (groups)" style="text;html=1;align=center;verticalAlign=middle;whiteSpace=wrap;rounded=0;" parent="1" vertex="1">
          <mxGeometry x="388" y="272.5" width="75" height="55" as="geometry" />
        </mxCell>
        <mxCell id="wMsvWjjIKzqpTzz2eaQ6-19" value="" style="endArrow=none;html=1;rounded=0;exitX=0;exitY=0.5;exitDx=0;exitDy=0;" parent="1" source="wMsvWjjIKzqpTzz2eaQ6-16" edge="1">
          <mxGeometry width="50" height="50" relative="1" as="geometry">
            <mxPoint x="400" y="290" as="sourcePoint" />
            <mxPoint x="130" y="300" as="targetPoint" />
          </mxGeometry>
        </mxCell>
        <mxCell id="wMsvWjjIKzqpTzz2eaQ6-20" value="" style="ellipse;whiteSpace=wrap;html=1;" parent="1" vertex="1">
          <mxGeometry x="247.5" y="357.5" width="105" height="70" as="geometry" />
        </mxCell>
        <mxCell id="wMsvWjjIKzqpTzz2eaQ6-21" value="Create/Delete projects" style="text;html=1;align=center;verticalAlign=middle;whiteSpace=wrap;rounded=0;" parent="1" vertex="1">
          <mxGeometry x="268" y="377.5" width="70" height="30" as="geometry" />
        </mxCell>
        <mxCell id="wMsvWjjIKzqpTzz2eaQ6-22" value="" style="endArrow=block;dashed=1;endFill=0;endSize=12;html=1;rounded=0;entryX=0.5;entryY=0;entryDx=0;entryDy=0;exitX=0;exitY=1;exitDx=0;exitDy=0;" parent="1" source="wMsvWjjIKzqpTzz2eaQ6-16" target="wMsvWjjIKzqpTzz2eaQ6-20" edge="1">
          <mxGeometry width="160" relative="1" as="geometry">
            <mxPoint x="340" y="260" as="sourcePoint" />
            <mxPoint x="500" y="260" as="targetPoint" />
          </mxGeometry>
        </mxCell>
        <mxCell id="wMsvWjjIKzqpTzz2eaQ6-23" value="" style="ellipse;whiteSpace=wrap;html=1;" parent="1" vertex="1">
          <mxGeometry x="480" y="351.25" width="140" height="82.5" as="geometry" />
        </mxCell>
        <mxCell id="wMsvWjjIKzqpTzz2eaQ6-24" value="See pre-made categories with to-dos having a common property" style="text;html=1;align=center;verticalAlign=middle;whiteSpace=wrap;rounded=0;" parent="1" vertex="1">
          <mxGeometry x="495" y="365" width="110" height="55" as="geometry" />
        </mxCell>
        <mxCell id="wMsvWjjIKzqpTzz2eaQ6-25" value="" style="endArrow=block;dashed=1;endFill=0;endSize=12;html=1;rounded=0;entryX=0.429;entryY=0;entryDx=0;entryDy=0;entryPerimeter=0;exitX=1;exitY=1;exitDx=0;exitDy=0;" parent="1" source="wMsvWjjIKzqpTzz2eaQ6-16" target="wMsvWjjIKzqpTzz2eaQ6-23" edge="1">
          <mxGeometry width="160" relative="1" as="geometry">
            <mxPoint x="340" y="260" as="sourcePoint" />
            <mxPoint x="500" y="260" as="targetPoint" />
          </mxGeometry>
        </mxCell>
        <mxCell id="wMsvWjjIKzqpTzz2eaQ6-26" value="" style="endArrow=none;html=1;rounded=0;entryX=0;entryY=0.5;entryDx=0;entryDy=0;" parent="1" target="wMsvWjjIKzqpTzz2eaQ6-27" edge="1">
          <mxGeometry width="50" height="50" relative="1" as="geometry">
            <mxPoint x="130" y="310" as="sourcePoint" />
            <mxPoint x="450" y="360" as="targetPoint" />
            <Array as="points">
              <mxPoint x="190" y="310" />
              <mxPoint x="190" y="480" />
            </Array>
          </mxGeometry>
        </mxCell>
        <mxCell id="wMsvWjjIKzqpTzz2eaQ6-27" value="" style="ellipse;whiteSpace=wrap;html=1;" parent="1" vertex="1">
          <mxGeometry x="365" y="440" width="120" height="80" as="geometry" />
        </mxCell>
        <mxCell id="wMsvWjjIKzqpTzz2eaQ6-28" value="Feel rewarded for their hard work" style="text;html=1;align=center;verticalAlign=middle;whiteSpace=wrap;rounded=0;" parent="1" vertex="1">
          <mxGeometry x="385" y="465" width="80" height="30" as="geometry" />
        </mxCell>
        <mxCell id="wMsvWjjIKzqpTzz2eaQ6-29" value="can:" style="text;html=1;align=center;verticalAlign=middle;whiteSpace=wrap;rounded=0;" parent="1" vertex="1">
          <mxGeometry x="130" y="260" width="60" height="30" as="geometry" />
        </mxCell>
        <mxCell id="wMsvWjjIKzqpTzz2eaQ6-30" value="" style="ellipse;whiteSpace=wrap;html=1;" parent="1" vertex="1">
          <mxGeometry x="300" y="530" width="120" height="80" as="geometry" />
        </mxCell>
        <mxCell id="wMsvWjjIKzqpTzz2eaQ6-31" value="Earn coins after deletion of a completed to-do" style="text;html=1;align=center;verticalAlign=middle;whiteSpace=wrap;rounded=0;" parent="1" vertex="1">
          <mxGeometry x="317.5" y="542.5" width="85" height="55" as="geometry" />
        </mxCell>
        <mxCell id="wMsvWjjIKzqpTzz2eaQ6-32" value="" style="endArrow=block;dashed=1;endFill=0;endSize=12;html=1;rounded=0;entryX=0.5;entryY=0;entryDx=0;entryDy=0;exitX=0;exitY=1;exitDx=0;exitDy=0;" parent="1" source="wMsvWjjIKzqpTzz2eaQ6-27" target="wMsvWjjIKzqpTzz2eaQ6-30" edge="1">
          <mxGeometry width="160" relative="1" as="geometry">
            <mxPoint x="340" y="430" as="sourcePoint" />
            <mxPoint x="500" y="430" as="targetPoint" />
          </mxGeometry>
        </mxCell>
        <mxCell id="wMsvWjjIKzqpTzz2eaQ6-33" value="Use coins for time-limited playing sessions in arcade" style="ellipse;whiteSpace=wrap;html=1;" parent="1" vertex="1">
          <mxGeometry x="425" y="530" width="135" height="85" as="geometry" />
        </mxCell>
        <mxCell id="wMsvWjjIKzqpTzz2eaQ6-34" value="" style="endArrow=block;dashed=1;endFill=0;endSize=12;html=1;rounded=0;entryX=0.5;entryY=0;entryDx=0;entryDy=0;exitX=1;exitY=1;exitDx=0;exitDy=0;" parent="1" source="wMsvWjjIKzqpTzz2eaQ6-27" target="wMsvWjjIKzqpTzz2eaQ6-33" edge="1">
          <mxGeometry width="160" relative="1" as="geometry">
            <mxPoint x="340" y="390" as="sourcePoint" />
            <mxPoint x="500" y="390" as="targetPoint" />
          </mxGeometry>
        </mxCell>
        <mxCell id="Ug8IrcGmIMjln49FOJdM-3" value="Learn how to use the app via onboarding tutorial" style="ellipse;whiteSpace=wrap;html=1;" parent="1" vertex="1">
          <mxGeometry x="355" y="620" width="140" height="70" as="geometry" />
        </mxCell>
        <mxCell id="Ug8IrcGmIMjln49FOJdM-4" value="" style="endArrow=none;html=1;rounded=0;exitX=0;exitY=0.5;exitDx=0;exitDy=0;" parent="1" source="Ug8IrcGmIMjln49FOJdM-3" edge="1">
          <mxGeometry width="50" height="50" relative="1" as="geometry">
            <mxPoint x="400" y="560" as="sourcePoint" />
            <mxPoint x="130" y="320" as="targetPoint" />
            <Array as="points">
              <mxPoint x="180" y="655" />
              <mxPoint x="180" y="320" />
            </Array>
          </mxGeometry>
        </mxCell>
        <mxCell id="9C9IErb70DzD7CNDGvv9-1" value="Move to-dos in between projects" style="ellipse;whiteSpace=wrap;html=1;" parent="1" vertex="1">
          <mxGeometry x="376" y="363.75" width="97.5" height="70" as="geometry" />
        </mxCell>
        <mxCell id="9C9IErb70DzD7CNDGvv9-2" value="" style="endArrow=block;dashed=1;endFill=0;endSize=12;html=1;rounded=0;exitX=0.5;exitY=1;exitDx=0;exitDy=0;" parent="1" source="wMsvWjjIKzqpTzz2eaQ6-16" target="9C9IErb70DzD7CNDGvv9-1" edge="1">
          <mxGeometry width="160" relative="1" as="geometry">
            <mxPoint x="340" y="440" as="sourcePoint" />
            <mxPoint x="500" y="440" as="targetPoint" />
          </mxGeometry>
        </mxCell>
        <mxCell id="QxtorDFf0iuugZyER2xK-1" value="Log in with a username and password" style="ellipse;whiteSpace=wrap;html=1;" vertex="1" parent="1">
          <mxGeometry x="355" y="700" width="140" height="70" as="geometry" />
        </mxCell>
      </root>
    </mxGraphModel>
  </diagram>
</mxfile>
